# AST/ASF file generated using VICON BodyLanguage
# -----------------------------------------------
:version 1.10
:name VICON
:units
  mass 1.0
  length 0.45
  angle deg
:documentation
   .ast/.asf automatically generated from VICON data using
   VICON BodyBuilder and BodyLanguage model FoxedUp or BRILLIANT.MOD
:root
   order TX TY TZ RX RY RZ
   axis XYZ
   position 0 0 0  
   orientation 0 0 0 
:bonedata
  begin
     id 1 
     name lhipjoint
     direction 0.440178 -0.822639 0.359871 
     length 2.53113 
     axis 0 0 0  XYZ
  end
  begin
     id 2 
     name lfemur
     direction 0.34202 -0.939693 0  
     length 7.88132  
     axis 0 0 20  XYZ
    dof rx ry rz
    limits (-160.0 20.0)
           (-70.0 70.0)
           (-60.0 70.0)
  end
  begin
     id 3 
     name ltibia
     direction 0.34202 -0.939693 0   
     length 8.43783   
     axis 0 0 20   XYZ
    dof rx
    limits (-10.0 170.0)
  end
  begin
     id 4 
     name lfoot
     direction 0.0886351 -0.243523 0.965837   
     length 2.63414   
     axis -90 7.62852e-016 20   XYZ
    dof rx rz
    limits (-45.0 90.0)
           (-70.0 20.0)
  end
  begin
     id 5 
     name ltoes
     direction 1.53703e-011 -4.21717e-011 1   
     length 1.31427   
     axis -90 7.62852e-016 20   XYZ
    dof rx
    limits (-90.0 20.0)
  end
  begin
     id 6 
     name rhipjoint
     direction -0.399779 -0.839773 0.367367   
     length 2.47948  
     axis 0 0 0  XYZ 
  end
  begin
     id 7 
     name rfemur
     direction -0.34202 -0.939693 0   
     length 7.74806   
     axis 0 0 -20   XYZ
    dof rx ry rz
    limits (-160.0 20.0)
           (-70.0 70.0)
           (-70.0 60.0)
  end
  begin
     id 8 
     name rtibia
     direction -0.34202 -0.939693 0   
     length 8.74432   
     axis 0 0 -20   XYZ
    dof rx
    limits (-10.0 170.0)
 end
 begin
     id 9 
     name rfoot
     direction -0.108514 -0.298139 0.948334   
     length 2.66102  
     axis -90 -7.62852e-016 -20   XYZ
    dof rx rz
    limits (-45.0 90.0)
           (-20.0 70.0)
  end
  begin
     id 10 
     name rtoes
     direction -1.53392e-011 -4.22077e-011 1   
     length 1.31983   
     axis -90 -7.62852e-016 -20   XYZ
    dof rx
    limits (-90.0 20.0)
  end
  begin
     id 11 
     name lowerback
     direction 0.0113257 0.999866 0.0118602   
     length 2.58694   
     axis 0 0 0   XYZ
    dof rx ry rz
    limits (-20.0 45.0)
           (-30.0 30.0)
           (-30.0 30.0)
  end
  begin
     id 12 
     name upperback
     direction -0.0164747 0.995193 -0.0965375   
     length 2.52368   
     axis 0 0 0   XYZ
    dof rx ry rz
    limits (-20.0 45.0)
           (-30.0 30.0)
           (-30.0 30.0)
  end
  begin
     id 13 
     name thorax
     direction -0.0194301 0.99433 -0.104552   
     length 2.56099   
     axis 0 0 0   XYZ
    dof rx ry rz
    limits (-20.0 45.0)
           (-30.0 30.0)
           (-30.0 30.0)
  end
  begin
     id 14 
     name lowerneck
     direction 0.0148543 0.995587 -0.092657   
     length 1.71582   
     axis 0 0 0   XYZ
    dof rx ry rz
    limits (-20.0 45.0)
           (-30.0 30.0)
           (-30.0 30.0)
  end
  begin
     id 15 
     name upperneck
     direction -0.0135467 0.993656 -0.111639   
     length 1.68937   
     axis 0 0 0   XYZ
    dof rx ry rz
    limits (-20.0 45.0)
           (-30.0 30.0)
           (-30.0 30.0)
  end
  begin
     id 16
     name head
     direction -0.00615349 0.999547 -0.029448  
     length 1.7462  
     axis 0 0 0   XYZ
    dof rx ry rz
    limits (-20.0 45.0)
           (-30.0 30.0)
           (-30.0 30.0)
  end
  begin
     id 17 
     name lclavicle
     direction 0.988267 0.149885 0.0293713  
     length 4.47222  
     axis 0 0 0   XYZ
    dof ry rz
    limits (-20.0 10.0)
           (0.0 20.0)
  end
  begin
     id 18 
     name lhumerus
     direction 1 -4.48986e-011 -1.14833e-027   
     length 5.37148   
     axis 180 -30 -90   XYZ
    dof rx ry rz
    limits (-60.0 90.0)
           (-90.0 90.0)
           (-90.0 90.0)
  end
  begin
     id 19
     name lradius
     direction 0.999998 0.00170963 -0.000987055   
     length 3.94212   
     axis 180 -30 -90   XYZ
    dof rx
    limits (-10.0 170.0)
  end
  begin
     id 20
     name lwrist
     direction 0.999998 7.53149e-005 -0.00194706   
     length 1.97106   
     axis 4.65056e-015 90 90   XYZ
    dof ry
    limits (-180.0 0.0)
 end
  begin
     id 21 
     name lhand
     direction 1 -4.48973e-011 -1.31746e-026   
     length 1.17917   
     axis 8.4065e-015 90 90   XYZ
    dof rx rz
    limits (-90.0 90.0)
           (-45.0 45.0)
  end
  begin
     id 22 
     name lfingers
     direction 1 -4.49107e-011 -2.63492e-026   
     length 0.950679   
     axis 1.6813e-014 90 90   XYZ
    dof rx
    limits (0.0 90.0)
  end
  begin
     id 23
     name lthumb
     direction 0.707107 -6.35048e-011 0.707107   
     length 1.36499   
     axis -90 45 2.85299e-015   XYZ
    dof rx rz
    limits (-45.0 45.0)
           (-45.0 45.0)
  end
  begin
     id 24 
     name rclavicle
     direction -0.996699 0.0642895 -0.0495725   
     length 4.62611  
     axis 0 0 0   XYZ 
    dof ry rz
    limits (-10.0 20.0)
           (-20.0 0.0)
  end
  begin
     id 25 
     name rhumerus
     direction -1 -4.48919e-011 -2.41059e-027  
     length 5.4981   
     axis 180 30 90   XYZ
    dof rx ry rz
    limits (-90.0 60.0)
           (-90.0 90.0)
           (-90.0 90.0)
  end
  begin
     id 26 
     name rradius
     direction -0.999999 0.00118101 -0.000681858   
     length 3.48381   
     axis 180 30 90   XYZ
    dof rx
    limits (-10.0 170.0)
  end
  begin
     id 27 
     name rwrist
     direction -0.999999 0.000321823 -0.00132288   
     length 1.7419   
     axis 4.65056e-015 -90 -90   XYZ
    dof ry
    limits (-180.0 0.0)
  end
  begin
     id 28
     name rhand
     direction -1 -4.49022e-011 -1.31746e-026   
     length 1.34932   
     axis 8.4065e-015 -90 -90   XYZ
    dof rx rz
    limits (-90.0 90.0)
           (-45.0 45.0)
  end
  begin
     id 29
     name rfingers
     direction -1 -4.49178e-011 -2.63492e-026   
     length 1.08785   
     axis 1.6813e-014 -90 -90   XYZ
    dof rx
    limits (0.0 90.0)
  end
  begin
     id 30
     name rthumb
     direction -0.707107 -6.34713e-011 0.707107   
     length 1.56195   
     axis -90 -45 -2.85299e-015   XYZ
    dof rx rz
    limits (-45.0 45.0)
           (-45.0 45.0)
  end
:hierarchy
  begin
    root lhipjoint rhipjoint lowerback
    lhipjoint lfemur
    lfemur ltibia
    ltibia lfoot
    lfoot ltoes
    rhipjoint rfemur
    rfemur rtibia
    rtibia rfoot
    rfoot rtoes
    lowerback upperback
    upperback thorax
    thorax lowerneck lclavicle rclavicle
    lowerneck upperneck
    upperneck head
    lclavicle lhumerus
    lhumerus lradius
    lradius lwrist
    lwrist lhand lthumb
    lhand lfingers
    rclavicle rhumerus
    rhumerus rradius
    rradius rwrist
    rwrist rhand rthumb
    rhand rfingers
  end

#!OML:ASF X:\für Bonn\!DataBase\2005_08_10_Bjorn_Final\c3d\bjorn.ASF
:FULLY-SPECIFIED
:DEGREES
1
root 1.03497 18.9663 0.239436 -177.492 -6.23347 -180.05
lowerback -3.16585 0.69371 3.76775
upperback 5.38898 0.512943 -0.678257
thorax 7.46795 0.402303 -2.78685
lowerneck -3.68135 -2.37794 -1.1959
upperneck 11.9479 -3.45639 -0.424071
head 4.62505 -1.92952 -0.12198
rclavicle 1.85242e-014 -2.5345e-015
rhumerus 73.8397 1.10268 -78.3929
rradius 7.60214
rwrist 50.7234
rhand -11.7013 8.16905
rfingers 7.12502
rthumb 14.3448 -21.3154
lclavicle 1.85242e-014 -2.5345e-015
lhumerus 75.9654 -11.1584 72.2023
lradius 9.01063
lwrist -56.1831
lhand -17.853 -7.48115
lfingers 7.12502
lthumb 8.41223 22.3313
rfemur 170.221 -168.881 -164.277
rtibia 32.3788
rfoot -22.6507 7.7818
rtoes -17.5613
lfemur -11.445 5.56011 -15.3596
ltibia 33.1526
lfoot -17.7159 -7.51859
ltoes -6.43537
2
root 1.0342 18.9668 0.262504 -177.44 -6.14899 -180.068
lowerback -2.90848 0.723352 3.77214
upperback 5.46695 0.549952 -0.678878
thorax 7.4052 0.415926 -2.78795
lowerneck -3.70257 -2.38173 -1.25023
upperneck 11.7463 -3.44764 -0.35069
head 4.55814 -1.91658 -0.0845625
rclavicle -6.74625e-015 7.45443e-016
rhumerus 73.6456 1.24169 -78.3063
rradius 7.74755
rwrist 50.5261
rhand -11.6707 8.23658
rfingers 7.12502
rthumb 14.3743 -21.2457
lclavicle -6.74625e-015 7.45443e-016
lhumerus 75.8966 -11.2734 72.1134
lradius 9.11232
lwrist -55.6365
lhand -17.4391 -7.62798
lfingers 7.12502
lthumb 8.81161 22.1681
rfemur 169.965 -168.66 -164.321
rtibia 32.5649
rfoot -22.6197 7.97506
rtoes -18.204
lfemur -11.4715 5.31805 -15.4351
ltibia 32.9761
lfoot -17.687 -7.27898
ltoes -5.66805
3
root 1.03275 18.975 0.28611 -177.289 -6.05884 -180.089
lowerback -2.72991 0.759662 3.78512
upperback 5.51902 0.59666 -0.687241
thorax 7.36154 0.43655 -2.80084
lowerneck -3.64154 -2.39565 -1.23182
upperneck 11.467 -3.45132 -0.332103
head 4.44385 -1.90853 -0.0767423
rclavicle 8.88319e-015 1.43125e-014
rhumerus 73.4447 1.3598 -78.2183
rradius 7.87756
rwrist 50.3588
rhand -11.6109 8.20813
rfingers 7.12502
rthumb 14.4319 -21.2701
lclavicle 8.88319e-015 1.43125e-014
lhumerus 75.8454 -11.3948 72.0174
lradius 9.13426
lwrist -55.0687
lhand -17.1973 -7.7223
lfingers 7.12502
lthumb 9.04498 22.0638
rfemur 169.607 -168.482 -164.337
rtibia 32.7089
rfoot -22.5446 8.11608
rtoes -18.6966
lfemur -11.6085 5.17127 -15.5225
ltibia 32.7816
lfoot -17.6548 -7.06653
ltoes -5.12441
4
root 1.03141 18.9857 0.310977 -177.079 -5.96333 -180.186
lowerback -2.57604 0.787385 3.69841
upperback 5.56063 0.63815 -0.688316
thorax 7.31813 0.449111 -2.75052
lowerneck -3.60396 -2.40022 -1.30222
upperneck 11.2011 -3.43855 -0.289891
head 4.34205 -1.89532 -0.0452871
rclavicle -7.33018e-015 6.4605e-015
rhumerus 73.2545 1.50033 -78.0844
rradius 7.99827
rwrist 50.0846
rhand -11.5393 8.2107
rfingers 7.12502
rthumb 14.5009 -21.2626
lclavicle -7.33018e-015 6.4605e-015
lhumerus 75.7686 -11.4855 71.9622
lradius 9.14915
lwrist -54.4399
lhand -17.049 -7.84487
lfingers 7.12502
lthumb 9.18803 21.935
rfemur 169.197 -168.273 -164.421
rtibia 32.8231
rfoot -22.4199 8.24194
rtoes -19.4088
lfemur -11.8249 5.12884 -15.6919
ltibia 32.6049
lfoot -17.5657 -6.89834
ltoes -4.85656
5
root 1.02961 18.9979 0.338156 -176.823 -5.86606 -180.34
lowerback -2.44267 0.825264 3.5893
upperback 5.59946 0.697438 -0.739604
thorax 7.28527 0.471287 -2.73885
lowerneck -3.50686 -2.40726 -1.26441
upperneck 10.8674 -3.43479 -0.256695
head 4.20193 -1.88148 -0.0346143
rclavicle -2.75565e-014 1.05356e-014
rhumerus 73.0905 1.59937 -77.9953
rradius 8.07562
rwrist 49.8154
rhand -11.478 8.15431
rfingers 7.12502
rthumb 14.56 -21.3147
lclavicle -2.75565e-014 1.05356e-014
lhumerus 75.6617 -11.6098 71.8506
lradius 9.1948
lwrist -53.8386
lhand -17.0233 -7.94929
lfingers 7.12502
lthumb 9.21285 21.8294
rfemur 168.744 -168.129 -164.556
rtibia 32.9272
rfoot -22.2941 8.36379
rtoes -19.8163
lfemur -12.1169 5.11592 -15.9397
ltibia 32.4685
lfoot -17.5024 -6.68028
ltoes -4.7876
6
root 1.02895 19.0082 0.368955 -176.532 -5.78582 -180.551
lowerback -2.3169 0.850196 3.38553
upperback 5.64554 0.742142 -0.76684
thorax 7.26065 0.480085 -2.65011
lowerneck -3.44364 -2.41443 -1.28992
upperneck 10.5353 -3.42338 -0.247691
head 4.0708 -1.86752 -0.0212719
rclavicle -1.63003e-014 1.39149e-015
rhumerus 72.9715 1.69841 -77.8343
rradius 8.13572
rwrist 49.4541
rhand -11.4313 8.10927
rfingers 7.12502
rthumb 14.605 -21.3565
lclavicle -1.63003e-014 1.39149e-015
lhumerus 75.4884 -11.7475 71.813
lradius 9.30032
lwrist -53.2777
lhand -17.0957 -7.95823
lfingers 7.12502
lthumb 9.14299 21.8236
rfemur 168.239 -168.037 -164.728
rtibia 33.0429
rfoot -22.1828 8.39335
rtoes -20.2544
lfemur -12.4904 5.05359 -16.2531
ltibia 32.3938
lfoot -17.4594 -6.40118
ltoes -5.07163
7
root 1.029 19.0161 0.402267 -176.207 -5.69075 -180.797
lowerback -2.19574 0.89296 3.18353
upperback 5.69117 0.813293 -0.849109
thorax 7.24106 0.503861 -2.61804
lowerneck -3.34825 -2.43224 -1.22496
upperneck 10.1256 -3.43179 -0.214749
head 3.90526 -1.85716 -0.0153797
rclavicle 1.63997e-015 -9.24349e-015
rhumerus 72.9029 1.72414 -77.7276
rradius 8.08363
rwrist 49.0312
rhand -11.4517 8.07512
rfingers 7.12502
rthumb 14.5853 -21.3921
lclavicle 1.63997e-015 -9.24349e-015
lhumerus 75.3141 -11.9517 71.7117
lradius 9.42377
lwrist -52.7886
lhand -17.2872 -7.90573
lfingers 7.12502
lthumb 8.95817 21.8841
rfemur 167.675 -168.041 -164.919
rtibia 33.1914
rfoot -22.0951 8.37721
rtoes -20.4253
lfemur -12.9341 4.98882 -16.6185
ltibia 32.377
lfoot -17.4466 -6.07566
ltoes -5.57264
8
root 1.02874 19.0257 0.438857 -175.841 -5.60955 -181.046
lowerback -2.095 0.909838 2.94612
upperback 5.75176 0.846807 -0.893498
thorax 7.24491 0.505787 -2.52954
lowerneck -3.35499 -2.4352 -1.2263
upperneck 9.75206 -3.41244 -0.199141
head 3.77454 -1.8365 -0.00460985
rclavicle -2.01269e-015 3.97569e-016
rhumerus 72.9528 1.79386 -77.5683
rradius 7.96743
rwrist 48.5334
rhand -11.4718 8.05681
rfingers 7.12502
rthumb 14.566 -21.4118
lclavicle -2.01269e-015 3.97569e-016
lhumerus 75.1887 -12.0448 71.6373
lradius 9.52881
lwrist -52.4282
lhand -17.5136 -7.83283
lfingers 7.12502
lthumb 8.73978 21.9662
rfemur 167.033 -168.143 -165.087
rtibia 33.3786
rfoot -22.0488 8.24812
rtoes -20.5375
lfemur -13.4689 4.93169 -16.9859
ltibia 32.4096
lfoot -17.4141 -5.76129
ltoes -6.00588
